PathFileType	4	(X/Y/Z)	Patient4_TMGait_0pt3_02_left_08.trc.trc
DataRate	CameraRate	NumFrames	NumMarkers	Units	OrigDataRate	OrigDataStartFrame	OrigNumFrames
51.094890510949	51.094890510949	4	33	mm	51.094890510949	18	       141
Frame#	Time	Sacral			L.Shoulder			Chest			R.Shoulder			Neck			R.ASIS			L.ASIS			R.Thigh.Superior			R.Thigh.Lateral			R.Thigh.Inferior			R.Patella			L.Thigh.Superior			L.Thigh.Lateral			L.Thigh.Inferior			L.Patella			L.Shank.Superior			L.Shank.Lateral			L.Shank.Inferior			R.Shank.Superior			R.Shank.Lateral			R.Shank.Inferior			R.Heel			R.Midfoot.Superior			R.Midfoot.Lateral			R.Toe			L.Heel			L.Midfoot.Lateral			L.Midfoot.Superior			L.Toe			L.Elbow			L.Wrist			R.Elbow			R.Wrist			
		X1	Y1	Z1	X2	Y2	Z2	X3	Y3	Z3	X4	Y4	Z4	X5	Y5	Z5	X6	Y6	Z6	X7	Y7	Z7	X8	Y8	Z8	X9	Y9	Z9	X10	Y10	Z10	X11	Y11	Z11	X12	Y12	Z12	X13	Y13	Z13	X14	Y14	Z14	X15	Y15	Z15	X16	Y16	Z16	X17	Y17	Z17	X18	Y18	Z18	X19	Y19	Z19	X20	Y20	Z20	X21	Y21	Z21	X22	Y22	Z22	X23	Y23	Z23	X24	Y24	Z24	X25	Y25	Z25	X26	Y26	Z26	X27	Y27	Z27	X28	Y28	Z28	X29	Y29	Z29	X30	Y30	Z30	X31	Y31	Z31	X32	Y32	Z32	X33	Y33	Z33	

18	15.832714285714	695.051860567918	1000.872840460332	608.519226284121	839.171315340434	1413.831884207736	374.789120652690	973.772004842601	1350.207281114426	512.737619458861	935.346746443867	1437.491744377431	695.105912846542	860.019770915994	1484.745205524443	526.724978292751	940.299160272535	931.567718569077	676.745119026924	875.109344806959	952.650373474054	409.343530446810	957.867823709989	724.457246847553	633.921728143058	878.595859093700	614.092475767734	698.507097382967	936.994163374706	562.798336555787	604.797771905597	929.256533825302	469.462049003881	607.161915384430	959.378307572127	773.551189169063	437.744318656303	910.021000040289	647.099938884579	359.332828765907	1011.958113909534	585.776749748713	420.214114849095	1038.504643269432	520.733261532515	412.444016005891	1018.686010463407	449.349318614192	398.446958168408	948.097219113755	323.838889770287	341.591342215116	1033.335395733089	218.966306690628	389.902757961864	882.028609685491	385.586714138861	615.186132172970	799.014787258644	293.111708870489	680.182275170856	813.592554054953	196.805070306289	611.214550094164	650.836195877080	46.110923864888	586.977945570407	824.651534226245	96.375766798241	617.803442075260	735.707119126310	37.947329538378	659.028348062170	943.624310609359	39.910946661238	644.355758371050	942.127475184921	44.894219345445	424.029780370515	1016.728488469176	43.626374224851	344.862146614814	1093.352741355027	116.357503678926	364.760575738482	1224.179935542274	77.826332814311	339.953168630764	690.505296129087	1083.657049905750	313.679945938875	649.112994639042	829.552642641200	346.036136096921	1098.335074826470	1146.290442526799	822.017769045718	1334.224305924772	1206.508494403240	748.600034386098	
19	15.852285714286	695.506673655164	1001.740623257382	607.222338781523	837.889419473073	1414.552776783020	372.729814522217	973.799254102847	1350.500922228821	509.364054825184	937.076351547154	1438.147337140120	691.779980240016	859.953337519927	1485.180890560554	524.507853581072	940.623455028296	931.742636875814	674.097262982886	874.233870946732	952.984827309741	407.026846997249	954.898521519970	723.907641143675	632.274091275213	874.125659426744	614.755153888329	697.817420688348	931.313129805940	562.332699930472	604.330324984014	922.149606346014	469.621654567578	607.044168830178	956.167385474560	771.461363749768	433.936083998814	903.595356807683	645.525924631808	356.316948652732	1005.435277559321	583.351935100528	416.186317454409	1031.504698081199	520.241407990184	409.494228744423	1014.536756120644	449.537324332038	395.671490689924	949.595774653456	320.964632005543	338.119706925798	1038.916646398917	219.595628085446	387.252247296316	875.403372114576	385.943527494513	615.239089932897	792.449066410621	293.395329417152	680.305044839864	807.358328418336	197.048588351735	611.333297040068	644.832859575014	46.014618510013	587.028484335280	818.777280143481	96.386030762241	617.892771685298	729.728516212024	37.883735463404	659.088402840562	937.633204404256	39.937242432747	644.343784150443	954.081720648353	42.623421297711	420.543836149676	1029.816096072875	42.915215814087	342.343864564158	1103.886175042473	118.089517214448	362.875637468645	1236.338670427308	83.296273434552	340.203189495704	684.337854692585	1087.225137705285	312.795891472526	641.955544520745	833.211145029367	346.496103390329	1109.629230245183	1153.914039324426	816.259494158440	1337.755512911044	1230.884794235823	736.088070447930	
20	15.871857142857	696.052691942871	1002.062206337128	605.458061613437	836.833869530680	1414.763578523731	370.267695033381	973.872406300753	1350.397945166597	505.808446803425	938.495324698686	1438.371877100746	688.202839119294	859.876588949797	1485.193184221966	521.891989173807	941.084559593240	931.591496053396	671.428312560148	873.764851003982	952.802614858242	404.609921087768	952.339675921616	723.119447820416	630.622468953415	869.996274676696	615.154795706750	696.964784557271	926.108508614586	561.639315537248	603.786850660247	915.516985170123	469.511961021869	606.783583406704	953.628448923751	769.032719972415	430.070170457881	897.743835616072	643.461918797623	353.599257271943	999.612422896410	580.690575446910	412.415568915675	1024.952890418107	519.077223320535	406.821383332478	1010.274022752097	448.925158950594	393.143060666410	949.652227031163	318.247005443791	335.288796964467	1041.973649688370	219.758558935821	385.034042756644	869.154741790902	386.043621087577	615.156486929892	786.123543237383	293.547433552336	680.338510219930	801.247867675979	197.122203940826	611.381696066354	638.815026789083	45.830376019975	587.062521271137	812.874161217886	96.371669189180	617.953978980386	723.732412184977	37.770583825873	659.141764084552	931.631925929607	39.974526151074	644.328209345067	962.016972186277	40.990451697700	417.821072237343	1038.404142495324	42.597295761407	340.166841776832	1110.584122695757	119.356471085512	361.261113895290	1244.094375227720	87.307512417587	339.790134000144	679.684809804124	1089.731283516140	311.325063102904	637.255270860294	835.578238504577	346.441242870762	1120.075077265447	1161.113384047655	810.196443399052	1339.720755163414	1253.087009280106	723.944946775533	
21	15.891428571429	696.697731400183	1001.864875410559	603.253522006631	835.978785197019	1414.473391010794	367.384676118861	973.985612297474	1349.931969386018	502.044146146627	939.619489043797	1438.193797983980	684.366758937406	859.786481732325	1484.804057596238	518.857662318733	941.712208449102	931.127573206324	668.734911265158	873.694638102341	952.139906758114	402.093079811200	950.245079149683	722.098607082787	628.942044886099	866.281679450211	615.288503436647	695.923213913061	921.459687658650	560.721141273633	603.131863512110	909.454330421374	469.122713207689	606.348804420170	951.821724928293	766.382924029881	426.214113710596	892.633692568666	641.023683329754	351.190554094025	994.648658403524	577.934781636069	408.936589337800	1019.048198445973	517.363372640173	404.405058760800	1006.145197276513	447.581405498899	390.843419727058	948.488982129238	315.588077033447	333.093162780448	1042.847010814567	219.293178786747	383.236733924910	863.341013146818	385.879404894715	614.909464301898	780.099286061336	293.584247382012	680.275747965135	795.286662817457	197.034269706035	611.356348533647	632.792898159679	45.591570206750	587.087381329807	806.947619539651	96.336925499473	617.992634312441	717.728076111730	37.623263760847	659.191081239457	925.628098359093	40.012155755075	644.312924712080	966.235554847306	39.766660189969	415.925501787926	1042.771536249561	42.360326669897	338.354403908317	1113.842652611179	119.835959390003	359.892075536531	1247.864953088958	89.394092253817	338.635428317251	676.486397260107	1091.134855585298	309.240613103234	634.899245338380	836.648108057853	345.832165325973	1129.604686858652	1167.777408188927	803.879240721290	1340.413505547589	1272.979876175736	712.223381199683	
